<mxfile host="app.diagrams.net" modified="2021-03-07T17:54:05.619Z" agent="5.0 (Windows NT 10.0; Win64; x64) AppleWebKit/537.36 (KHTML, like Gecko) Chrome/88.0.4324.190 Safari/537.36" etag="gU99RuWYeNRBSFlegtJP" version="14.4.4" type="github">
  <diagram id="kgpKYQtTHZ0yAKxKKP6v" name="Page-1">
    <mxGraphModel dx="1888" dy="548" grid="1" gridSize="10" guides="1" tooltips="1" connect="1" arrows="1" fold="1" page="1" pageScale="1" pageWidth="850" pageHeight="1100" math="0" shadow="0">
      <root>
        <mxCell id="0" />
        <mxCell id="1" parent="0" />
        <mxCell id="OJHVrh3Ytr9lQXy4VEQ4-1" value="Telepes lépés" style="shape=umlFrame;whiteSpace=wrap;html=1;" parent="1" vertex="1">
          <mxGeometry x="-70" y="50" width="700" height="910" as="geometry" />
        </mxCell>
        <mxCell id="uRkDX2cLYLujfDHaDzAk-1" value="alt" style="shape=umlFrame;whiteSpace=wrap;html=1;" parent="1" vertex="1">
          <mxGeometry x="30" y="170" width="580" height="710" as="geometry" />
        </mxCell>
        <mxCell id="3nuBFxr9cyL0pnOWT2aG-1" value="t: Telepes" style="shape=umlLifeline;perimeter=lifelinePerimeter;container=1;collapsible=0;recursiveResize=0;rounded=0;shadow=0;strokeWidth=1;" parent="1" vertex="1">
          <mxGeometry x="120" y="80" width="100" height="880" as="geometry" />
        </mxCell>
        <mxCell id="3nuBFxr9cyL0pnOWT2aG-2" value="" style="points=[];perimeter=orthogonalPerimeter;rounded=0;shadow=0;strokeWidth=1;" parent="3nuBFxr9cyL0pnOWT2aG-1" vertex="1">
          <mxGeometry x="45" y="70" width="10" height="760" as="geometry" />
        </mxCell>
        <mxCell id="3nuBFxr9cyL0pnOWT2aG-7" value="" style="verticalAlign=bottom;endArrow=open;dashed=1;endSize=8;shadow=0;strokeWidth=1;" parent="1" source="3nuBFxr9cyL0pnOWT2aG-2" edge="1">
          <mxGeometry relative="1" as="geometry">
            <mxPoint x="-10" y="910" as="targetPoint" />
            <mxPoint x="345" y="311.9999999999998" as="sourcePoint" />
          </mxGeometry>
        </mxCell>
        <mxCell id="uRkDX2cLYLujfDHaDzAk-2" value="" style="html=1;points=[];perimeter=orthogonalPerimeter;" parent="1" vertex="1">
          <mxGeometry x="170" y="210" width="10" height="40" as="geometry" />
        </mxCell>
        <mxCell id="uRkDX2cLYLujfDHaDzAk-3" value="2 : Banyasz()" style="edgeStyle=orthogonalEdgeStyle;html=1;align=left;spacingLeft=2;endArrow=block;rounded=0;entryX=1;entryY=0;" parent="1" target="uRkDX2cLYLujfDHaDzAk-2" edge="1">
          <mxGeometry relative="1" as="geometry">
            <mxPoint x="175" y="190" as="sourcePoint" />
            <Array as="points">
              <mxPoint x="200" y="190" />
            </Array>
          </mxGeometry>
        </mxCell>
        <mxCell id="uRkDX2cLYLujfDHaDzAk-4" value="" style="html=1;points=[];perimeter=orthogonalPerimeter;" parent="1" vertex="1">
          <mxGeometry x="170" y="310" width="10" height="40" as="geometry" />
        </mxCell>
        <mxCell id="uRkDX2cLYLujfDHaDzAk-5" value="2 : Fur()" style="edgeStyle=orthogonalEdgeStyle;html=1;align=left;spacingLeft=2;endArrow=block;rounded=0;entryX=1;entryY=0;" parent="1" target="uRkDX2cLYLujfDHaDzAk-4" edge="1">
          <mxGeometry relative="1" as="geometry">
            <mxPoint x="175" y="290" as="sourcePoint" />
            <Array as="points">
              <mxPoint x="200" y="290" />
            </Array>
          </mxGeometry>
        </mxCell>
        <mxCell id="uRkDX2cLYLujfDHaDzAk-6" value="" style="html=1;points=[];perimeter=orthogonalPerimeter;" parent="1" vertex="1">
          <mxGeometry x="170" y="400" width="10" height="40" as="geometry" />
        </mxCell>
        <mxCell id="uRkDX2cLYLujfDHaDzAk-7" value="2 : Mozog(jatekosAltalMeghatarozottMezo: Mezo)" style="edgeStyle=orthogonalEdgeStyle;html=1;align=left;spacingLeft=2;endArrow=block;rounded=0;entryX=1;entryY=0;" parent="1" target="uRkDX2cLYLujfDHaDzAk-6" edge="1">
          <mxGeometry relative="1" as="geometry">
            <mxPoint x="175" y="380" as="sourcePoint" />
            <Array as="points">
              <mxPoint x="200" y="380" />
            </Array>
          </mxGeometry>
        </mxCell>
        <mxCell id="uRkDX2cLYLujfDHaDzAk-8" value="" style="html=1;points=[];perimeter=orthogonalPerimeter;" parent="1" vertex="1">
          <mxGeometry x="170" y="490" width="10" height="40" as="geometry" />
        </mxCell>
        <mxCell id="uRkDX2cLYLujfDHaDzAk-9" value="2 : Tetlen()" style="edgeStyle=orthogonalEdgeStyle;html=1;align=left;spacingLeft=2;endArrow=block;rounded=0;entryX=1;entryY=0;" parent="1" target="uRkDX2cLYLujfDHaDzAk-8" edge="1">
          <mxGeometry relative="1" as="geometry">
            <mxPoint x="175" y="470" as="sourcePoint" />
            <Array as="points">
              <mxPoint x="200" y="470" />
            </Array>
          </mxGeometry>
        </mxCell>
        <mxCell id="uRkDX2cLYLujfDHaDzAk-10" value="" style="html=1;points=[];perimeter=orthogonalPerimeter;" parent="1" vertex="1">
          <mxGeometry x="170" y="590" width="10" height="40" as="geometry" />
        </mxCell>
        <mxCell id="uRkDX2cLYLujfDHaDzAk-11" value="2 : AnyagVisszatesz(jatekosAltalKivalasztottNyersanyag: Nyersanyag)" style="edgeStyle=orthogonalEdgeStyle;html=1;align=left;spacingLeft=2;endArrow=block;rounded=0;entryX=1;entryY=0;" parent="1" target="uRkDX2cLYLujfDHaDzAk-10" edge="1">
          <mxGeometry relative="1" as="geometry">
            <mxPoint x="175" y="570" as="sourcePoint" />
            <Array as="points">
              <mxPoint x="200" y="570" />
            </Array>
          </mxGeometry>
        </mxCell>
        <mxCell id="uRkDX2cLYLujfDHaDzAk-12" value="" style="html=1;points=[];perimeter=orthogonalPerimeter;" parent="1" vertex="1">
          <mxGeometry x="170" y="700" width="10" height="40" as="geometry" />
        </mxCell>
        <mxCell id="uRkDX2cLYLujfDHaDzAk-13" value="2 : Epit(robotVagyKapu: Epitheto)" style="edgeStyle=orthogonalEdgeStyle;html=1;align=left;spacingLeft=2;endArrow=block;rounded=0;entryX=1;entryY=0;" parent="1" target="uRkDX2cLYLujfDHaDzAk-12" edge="1">
          <mxGeometry relative="1" as="geometry">
            <mxPoint x="175" y="660" as="sourcePoint" />
            <Array as="points">
              <mxPoint x="175" y="670" />
              <mxPoint x="200" y="670" />
              <mxPoint x="200" y="700" />
            </Array>
          </mxGeometry>
        </mxCell>
        <mxCell id="uRkDX2cLYLujfDHaDzAk-14" value="" style="html=1;points=[];perimeter=orthogonalPerimeter;" parent="1" vertex="1">
          <mxGeometry x="170" y="810" width="10" height="40" as="geometry" />
        </mxCell>
        <mxCell id="uRkDX2cLYLujfDHaDzAk-15" value="2 : KapuLerak()" style="edgeStyle=orthogonalEdgeStyle;html=1;align=left;spacingLeft=2;endArrow=block;rounded=0;entryX=1;entryY=0;" parent="1" target="uRkDX2cLYLujfDHaDzAk-14" edge="1">
          <mxGeometry relative="1" as="geometry">
            <mxPoint x="175" y="790" as="sourcePoint" />
            <Array as="points">
              <mxPoint x="200" y="790" />
            </Array>
          </mxGeometry>
        </mxCell>
        <mxCell id="uRkDX2cLYLujfDHaDzAk-16" value="" style="endArrow=none;dashed=1;html=1;dashPattern=1 3;strokeWidth=2;" parent="1" edge="1">
          <mxGeometry width="50" height="50" relative="1" as="geometry">
            <mxPoint x="30" y="260" as="sourcePoint" />
            <mxPoint x="610" y="260" as="targetPoint" />
          </mxGeometry>
        </mxCell>
        <mxCell id="uRkDX2cLYLujfDHaDzAk-18" value="" style="endArrow=none;dashed=1;html=1;dashPattern=1 3;strokeWidth=2;" parent="1" edge="1">
          <mxGeometry width="50" height="50" relative="1" as="geometry">
            <mxPoint x="30" y="370" as="sourcePoint" />
            <mxPoint x="610" y="370" as="targetPoint" />
          </mxGeometry>
        </mxCell>
        <mxCell id="uRkDX2cLYLujfDHaDzAk-19" value="" style="endArrow=none;dashed=1;html=1;dashPattern=1 3;strokeWidth=2;" parent="1" edge="1">
          <mxGeometry width="50" height="50" relative="1" as="geometry">
            <mxPoint x="30" y="460" as="sourcePoint" />
            <mxPoint x="610" y="460" as="targetPoint" />
          </mxGeometry>
        </mxCell>
        <mxCell id="uRkDX2cLYLujfDHaDzAk-20" value="" style="endArrow=none;dashed=1;html=1;dashPattern=1 3;strokeWidth=2;" parent="1" edge="1">
          <mxGeometry width="50" height="50" relative="1" as="geometry">
            <mxPoint x="30" y="540" as="sourcePoint" />
            <mxPoint x="610" y="540" as="targetPoint" />
          </mxGeometry>
        </mxCell>
        <mxCell id="uRkDX2cLYLujfDHaDzAk-21" value="" style="endArrow=none;dashed=1;html=1;dashPattern=1 3;strokeWidth=2;" parent="1" edge="1">
          <mxGeometry width="50" height="50" relative="1" as="geometry">
            <mxPoint x="30" y="650" as="sourcePoint" />
            <mxPoint x="610" y="650" as="targetPoint" />
          </mxGeometry>
        </mxCell>
        <mxCell id="uRkDX2cLYLujfDHaDzAk-22" value="" style="endArrow=none;dashed=1;html=1;dashPattern=1 3;strokeWidth=2;" parent="1" edge="1">
          <mxGeometry width="50" height="50" relative="1" as="geometry">
            <mxPoint x="30" y="760" as="sourcePoint" />
            <mxPoint x="610" y="760" as="targetPoint" />
          </mxGeometry>
        </mxCell>
        <mxCell id="uRkDX2cLYLujfDHaDzAk-23" value="[a kiválasztott művelet a bányászás]" style="text;html=1;strokeColor=none;fillColor=none;align=center;verticalAlign=middle;whiteSpace=wrap;rounded=0;" parent="1" vertex="1">
          <mxGeometry x="40" y="210" width="120" height="20" as="geometry" />
        </mxCell>
        <mxCell id="uRkDX2cLYLujfDHaDzAk-24" value="[a kiválasztott művelet a fúrás&lt;span style=&quot;color: rgba(0 , 0 , 0 , 0) ; font-family: monospace ; font-size: 0px&quot;&gt;CmxGraphModel%3E%3Croot%3E%3CmxCell%20id%3D%220%22%2F%3E%3CmxCell%20id%3D%221%22%20parent%3D%220%22%2F%3E%3CmxCell%20id%3D%222%22%20value%3D%22%5Ba%20kiv%C3%A1lasztott%20m%C5%B1velet%20a%20b%C3%A1ny%C3%A1sz%C3%A1s%5D%22%20style%3D%22text%3Bhtml%3D1%3BstrokeColor%3Dnone%3BfillColor%3Dnone%3Balign%3Dcenter%3BverticalAlign%3Dmiddle%3BwhiteSpace%3Dwrap%3Brounded%3D0%3B%22%20vertex%3D%221%22%20parent%3D%221%22%3E%3CmxGeometry%20x%3D%2240%22%20y%3D%22210%22%20width%3D%22120%22%20height%3D%2220%22%20as%3D%22geometry%22%2F%3E%3C%2FmxCell%3E%3C%2Froot%3E%3C%2FmxGraphModel%3E&lt;/span&gt;]" style="text;html=1;strokeColor=none;fillColor=none;align=center;verticalAlign=middle;whiteSpace=wrap;rounded=0;" parent="1" vertex="1">
          <mxGeometry x="40" y="280" width="120" height="20" as="geometry" />
        </mxCell>
        <mxCell id="uRkDX2cLYLujfDHaDzAk-25" value="[a kiválasztott művelet a mozgás]" style="text;html=1;strokeColor=none;fillColor=none;align=center;verticalAlign=middle;whiteSpace=wrap;rounded=0;" parent="1" vertex="1">
          <mxGeometry x="40" y="380" width="120" height="20" as="geometry" />
        </mxCell>
        <mxCell id="uRkDX2cLYLujfDHaDzAk-26" value="[a kiválasztott művelet a tétlenség]" style="text;html=1;strokeColor=none;fillColor=none;align=center;verticalAlign=middle;whiteSpace=wrap;rounded=0;" parent="1" vertex="1">
          <mxGeometry x="40" y="470" width="120" height="20" as="geometry" />
        </mxCell>
        <mxCell id="uRkDX2cLYLujfDHaDzAk-28" value="[a kiválasztott művelet a nyersanyagvisszatétel]" style="text;html=1;strokeColor=none;fillColor=none;align=center;verticalAlign=middle;whiteSpace=wrap;rounded=0;" parent="1" vertex="1">
          <mxGeometry x="30" y="560" width="140" height="20" as="geometry" />
        </mxCell>
        <mxCell id="uRkDX2cLYLujfDHaDzAk-29" value="[a kiválasztott művelet az építés]" style="text;html=1;strokeColor=none;fillColor=none;align=center;verticalAlign=middle;whiteSpace=wrap;rounded=0;" parent="1" vertex="1">
          <mxGeometry x="40" y="670" width="120" height="20" as="geometry" />
        </mxCell>
        <mxCell id="uRkDX2cLYLujfDHaDzAk-30" value="[a kiválasztott művelet a kapulerakás" style="text;html=1;strokeColor=none;fillColor=none;align=center;verticalAlign=middle;whiteSpace=wrap;rounded=0;" parent="1" vertex="1">
          <mxGeometry x="30" y="780" width="130" height="20" as="geometry" />
        </mxCell>
        <mxCell id="3nuBFxr9cyL0pnOWT2aG-3" value="1 : Lepes()" style="verticalAlign=bottom;startArrow=none;endArrow=block;startSize=8;shadow=0;strokeWidth=1;startFill=0;" parent="1" target="3nuBFxr9cyL0pnOWT2aG-2" edge="1">
          <mxGeometry relative="1" as="geometry">
            <mxPoint x="-13" y="150" as="sourcePoint" />
          </mxGeometry>
        </mxCell>
        <mxCell id="aOzXbXCq_N-NWvyWJOZP-1" value="Player" style="shape=umlLifeline;participant=umlActor;perimeter=lifelinePerimeter;whiteSpace=wrap;html=1;container=1;collapsible=0;recursiveResize=0;verticalAlign=top;spacingTop=36;outlineConnect=0;" vertex="1" parent="1">
          <mxGeometry x="-20" y="90" width="20" height="840" as="geometry" />
        </mxCell>
      </root>
    </mxGraphModel>
  </diagram>
</mxfile>
